<svg width="200" height="200" viewBox="0 0 200 200" fill="none" xmlns="http://www.w3.org/2000/svg">
<rect x="0.5" y="0.5" width="199" height="199" rx="19.5" fill="#242424"/>
<rect x="0.5" y="0.5" width="199" height="199" rx="19.5" stroke="#3A3A3A"/>
<path d="M69.1001 102.966H78.8842L84.679 110.479L88.8139 115.371L98.7436 128.125H88.2607L81.505 119.564L78.6222 115.487L69.1001 102.966ZM100.17 93.1818C100.17 99.6075 98.9669 105.111 96.5597 109.692C94.1719 114.254 90.9105 117.749 86.7756 120.175C82.66 122.602 77.9912 123.815 72.7692 123.815C67.5471 123.815 62.8686 122.602 58.7337 120.175C54.6181 117.729 51.3568 114.225 48.9496 109.663C46.5618 105.082 45.3679 99.5881 45.3679 93.1818C45.3679 86.7562 46.5618 81.2623 48.9496 76.7003C51.3568 72.1188 54.6181 68.6148 58.7337 66.1882C62.8686 63.7616 67.5471 62.5483 72.7692 62.5483C77.9912 62.5483 82.66 63.7616 86.7756 66.1882C90.9105 68.6148 94.1719 72.1188 96.5597 76.7003C98.9669 81.2623 100.17 86.7562 100.17 93.1818ZM89.309 93.1818C89.309 88.6586 88.6004 84.844 87.1832 81.7379C85.7855 78.6125 83.8442 76.2538 81.3594 74.6619C78.8745 73.0507 76.0111 72.245 72.7692 72.245C69.5272 72.245 66.6638 73.0507 64.179 74.6619C61.6941 76.2538 59.7431 78.6125 58.326 81.7379C56.9283 84.844 56.2294 88.6586 56.2294 93.1818C56.2294 97.705 56.9283 101.529 58.326 104.655C59.7431 107.761 61.6941 110.12 64.179 111.731C66.6638 113.323 69.5272 114.119 72.7692 114.119C76.0111 114.119 78.8745 113.323 81.3594 111.731C83.8442 110.12 85.7855 107.761 87.1832 104.655C88.6004 101.529 89.309 97.705 89.309 93.1818Z" fill="#F4F1EA"/>
<path d="M134.292 103.758C134.02 101.215 132.875 99.2346 130.856 97.8175C128.856 96.4003 126.255 95.6918 123.052 95.6918C120.8 95.6918 118.868 96.0315 117.257 96.7109C115.646 97.3904 114.413 98.3125 113.559 99.4773C112.705 100.642 112.268 101.972 112.249 103.467C112.249 104.709 112.53 105.786 113.093 106.699C113.675 107.611 114.462 108.388 115.452 109.028C116.442 109.65 117.539 110.174 118.742 110.601C119.946 111.028 121.159 111.387 122.382 111.678L127.973 113.076C130.225 113.6 132.389 114.309 134.467 115.202C136.563 116.095 138.437 117.221 140.087 118.58C141.756 119.938 143.076 121.579 144.047 123.501C145.018 125.423 145.503 127.674 145.503 130.256C145.503 133.751 144.61 136.828 142.824 139.487C141.038 142.127 138.456 144.195 135.078 145.69C131.72 147.165 127.653 147.903 122.877 147.903C118.237 147.903 114.209 147.184 110.793 145.748C107.395 144.311 104.736 142.215 102.814 139.458C100.911 136.701 99.8826 133.343 99.7273 129.383H110.356C110.511 131.46 111.152 133.188 112.278 134.566C113.404 135.944 114.869 136.973 116.675 137.653C118.5 138.332 120.538 138.672 122.79 138.672C125.139 138.672 127.196 138.322 128.963 137.624C130.749 136.905 132.147 135.915 133.156 134.653C134.166 133.372 134.68 131.877 134.7 130.169C134.68 128.616 134.224 127.335 133.331 126.325C132.438 125.296 131.186 124.442 129.575 123.763C127.983 123.064 126.119 122.443 123.984 121.899L117.199 120.152C112.287 118.89 108.405 116.978 105.551 114.415C102.717 111.834 101.3 108.407 101.3 104.136C101.3 100.623 102.251 97.5457 104.153 94.9055C106.075 92.2654 108.686 90.2173 111.987 88.7614C115.287 87.286 119.024 86.5483 123.197 86.5483C127.429 86.5483 131.137 87.286 134.321 88.7614C137.524 90.2173 140.038 92.246 141.863 94.8473C143.688 97.4292 144.629 100.399 144.688 103.758H134.292Z" fill="#F4F1EA"/>
<line x1="38" y1="104" x2="150" y2="104" stroke="#2EF27B" stroke-width="4"/>
</svg>
