<svg width="270" height="58" viewBox="0 0 270 58" fill="none" xmlns="http://www.w3.org/2000/svg">
<rect x="0.5" y="4.5" width="49" height="49" rx="9.5" fill="#0F3D2E" stroke="#2EF27B"/>
<path d="M24.2805 32.6705H27.8601L29.9801 35.419L31.4929 37.2088L35.1257 41.875H31.2905L28.8189 38.7429L27.7642 37.2514L24.2805 32.6705ZM35.6477 29.0909C35.6477 31.4418 35.2074 33.4553 34.3267 35.1314C33.4531 36.8004 32.2599 38.0788 30.7472 38.9666C29.2415 39.8544 27.5334 40.2983 25.6229 40.2983C23.7124 40.2983 22.0007 39.8544 20.4879 38.9666C18.9822 38.0717 17.7891 36.7898 16.9084 35.1207C16.0348 33.4446 15.598 31.4347 15.598 29.0909C15.598 26.7401 16.0348 24.7301 16.9084 23.0611C17.7891 21.3849 18.9822 20.103 20.4879 19.2152C22.0007 18.3274 23.7124 17.8835 25.6229 17.8835C27.5334 17.8835 29.2415 18.3274 30.7472 19.2152C32.2599 20.103 33.4531 21.3849 34.3267 23.0611C35.2074 24.7301 35.6477 26.7401 35.6477 29.0909ZM31.674 29.0909C31.674 27.4361 31.4148 26.0405 30.8963 24.9041C30.3849 23.7607 29.6747 22.8977 28.7656 22.3153C27.8565 21.7259 26.8089 21.4311 25.6229 21.4311C24.4368 21.4311 23.3892 21.7259 22.4801 22.3153C21.571 22.8977 20.8572 23.7607 20.3388 24.9041C19.8274 26.0405 19.5717 27.4361 19.5717 29.0909C19.5717 30.7457 19.8274 32.1449 20.3388 33.2884C20.8572 34.4247 21.571 35.2876 22.4801 35.8771C23.3892 36.4595 24.4368 36.7507 25.6229 36.7507C26.8089 36.7507 27.8565 36.4595 28.7656 35.8771C29.6747 35.2876 30.3849 34.4247 30.8963 33.2884C31.4148 32.1449 31.674 30.7457 31.674 29.0909Z" fill="#2EF27B"/>
<path d="M72.7244 5.54545H75.8864V16.9489C75.8864 18.1989 75.5909 19.2983 75 20.2472C74.4148 21.196 73.5909 21.9375 72.5284 22.4716C71.4659 23 70.2244 23.2642 68.804 23.2642C67.3778 23.2642 66.1335 23 65.071 22.4716C64.0085 21.9375 63.1847 21.196 62.5994 20.2472C62.0142 19.2983 61.7216 18.1989 61.7216 16.9489V5.54545H64.8835V16.6847C64.8835 17.4119 65.0426 18.0597 65.3608 18.6278C65.6847 19.196 66.1392 19.642 66.7244 19.9659C67.3097 20.2841 68.0028 20.4432 68.804 20.4432C69.6051 20.4432 70.2983 20.2841 70.8835 19.9659C71.4744 19.642 71.929 19.196 72.2472 18.6278C72.5653 18.0597 72.7244 17.4119 72.7244 16.6847V5.54545ZM79.3232 23V5.54545H85.8686C87.2095 5.54545 88.3345 5.79545 89.2436 6.29545C90.1584 6.79545 90.8487 7.48295 91.3146 8.35795C91.7862 9.22727 92.022 10.2159 92.022 11.3239C92.022 12.4432 91.7862 13.4375 91.3146 14.3068C90.843 15.1761 90.147 15.8608 89.2266 16.3608C88.3061 16.8551 87.1726 17.1023 85.826 17.1023H81.4879V14.5028H85.3999C86.1839 14.5028 86.826 14.3665 87.326 14.0938C87.826 13.821 88.1953 13.446 88.4339 12.9688C88.6783 12.4915 88.8004 11.9432 88.8004 11.3239C88.8004 10.7045 88.6783 10.1591 88.4339 9.6875C88.1953 9.21591 87.8232 8.84943 87.3175 8.58807C86.8175 8.32102 86.1726 8.1875 85.3828 8.1875H82.4851V23H79.3232ZM109.709 11.4347H106.521C106.43 10.9119 106.263 10.4489 106.018 10.0455C105.774 9.63636 105.47 9.28977 105.107 9.00568C104.743 8.72159 104.328 8.50852 103.862 8.36648C103.402 8.21875 102.905 8.14489 102.371 8.14489C101.422 8.14489 100.581 8.38352 99.848 8.86079C99.1151 9.33239 98.5412 10.0256 98.1264 10.9403C97.7116 11.8494 97.5043 12.9602 97.5043 14.2727C97.5043 15.608 97.7116 16.733 98.1264 17.6477C98.5469 18.5568 99.1207 19.2443 99.848 19.7102C100.581 20.1705 101.419 20.4006 102.362 20.4006C102.885 20.4006 103.374 20.3324 103.828 20.196C104.288 20.054 104.7 19.8466 105.064 19.5739C105.433 19.3011 105.743 18.9659 105.993 18.5682C106.249 18.1705 106.425 17.7159 106.521 17.2045L109.709 17.2216C109.589 18.0511 109.331 18.8295 108.933 19.5568C108.541 20.2841 108.027 20.9261 107.391 21.483C106.754 22.0341 106.01 22.4659 105.158 22.7784C104.305 23.0852 103.359 23.2386 102.32 23.2386C100.786 23.2386 99.4162 22.8835 98.2116 22.1733C97.0071 21.4631 96.0582 20.4375 95.3651 19.0966C94.6719 17.7557 94.3253 16.1477 94.3253 14.2727C94.3253 12.392 94.6747 10.7841 95.3736 9.44886C96.0724 8.10795 97.0241 7.08239 98.2287 6.37216C99.4332 5.66193 100.797 5.30682 102.32 5.30682C103.291 5.30682 104.195 5.44318 105.03 5.71591C105.865 5.98864 106.609 6.3892 107.263 6.91761C107.916 7.44034 108.453 8.08239 108.874 8.84375C109.3 9.59943 109.578 10.4631 109.709 11.4347ZM125.06 17.1364H127.924L129.62 19.3352L130.83 20.767L133.737 24.5H130.668L128.691 21.9943L127.847 20.8011L125.06 17.1364ZM134.154 14.2727C134.154 16.1534 133.802 17.7642 133.097 19.1051C132.398 20.4403 131.444 21.4631 130.234 22.1733C129.029 22.8835 127.663 23.2386 126.134 23.2386C124.606 23.2386 123.237 22.8835 122.026 22.1733C120.822 21.4574 119.867 20.4318 119.163 19.0966C118.464 17.7557 118.114 16.1477 118.114 14.2727C118.114 12.392 118.464 10.7841 119.163 9.44886C119.867 8.10795 120.822 7.08239 122.026 6.37216C123.237 5.66193 124.606 5.30682 126.134 5.30682C127.663 5.30682 129.029 5.66193 130.234 6.37216C131.444 7.08239 132.398 8.10795 133.097 9.44886C133.802 10.7841 134.154 12.392 134.154 14.2727ZM130.975 14.2727C130.975 12.9489 130.768 11.8324 130.353 10.9233C129.944 10.0085 129.376 9.31818 128.648 8.85227C127.921 8.38068 127.083 8.14489 126.134 8.14489C125.185 8.14489 124.347 8.38068 123.62 8.85227C122.893 9.31818 122.322 10.0085 121.907 10.9233C121.498 11.8324 121.293 12.9489 121.293 14.2727C121.293 15.5966 121.498 16.7159 121.907 17.6307C122.322 18.5398 122.893 19.2301 123.62 19.7017C124.347 20.1676 125.185 20.4006 126.134 20.4006C127.083 20.4006 127.921 20.1676 128.648 19.7017C129.376 19.2301 129.944 18.5398 130.353 17.6307C130.768 16.7159 130.975 15.5966 130.975 14.2727ZM145.374 17.4943V9.90909H148.46V23H145.468V20.6733H145.332C145.036 21.4062 144.55 22.0057 143.874 22.4716C143.204 22.9375 142.377 23.1705 141.394 23.1705C140.536 23.1705 139.778 22.9801 139.119 22.5994C138.465 22.2131 137.954 21.6534 137.585 20.9205C137.215 20.1818 137.031 19.2898 137.031 18.2443V9.90909H140.116V17.767C140.116 18.5966 140.343 19.2557 140.798 19.7443C141.252 20.233 141.849 20.4773 142.587 20.4773C143.042 20.4773 143.482 20.3665 143.908 20.1449C144.335 19.9233 144.684 19.5938 144.957 19.1562C145.235 18.7131 145.374 18.1591 145.374 17.4943ZM155.399 23.2642C154.57 23.2642 153.822 23.1165 153.158 22.821C152.499 22.5199 151.976 22.0767 151.589 21.4915C151.209 20.9062 151.018 20.1847 151.018 19.3267C151.018 18.5881 151.155 17.9773 151.428 17.4943C151.7 17.0114 152.072 16.625 152.544 16.3352C153.016 16.0455 153.547 15.8267 154.138 15.679C154.734 15.5256 155.351 15.4148 155.987 15.3466C156.754 15.267 157.376 15.196 157.854 15.1335C158.331 15.0653 158.678 14.9631 158.893 14.8267C159.115 14.6847 159.226 14.4659 159.226 14.1705V14.1193C159.226 13.4773 159.036 12.9801 158.655 12.6278C158.274 12.2756 157.726 12.0994 157.01 12.0994C156.254 12.0994 155.655 12.2642 155.212 12.5938C154.774 12.9233 154.479 13.3125 154.325 13.7614L151.445 13.3523C151.672 12.5568 152.047 11.892 152.57 11.358C153.092 10.8182 153.732 10.4148 154.487 10.1477C155.243 9.875 156.078 9.73864 156.993 9.73864C157.624 9.73864 158.251 9.8125 158.876 9.96023C159.501 10.108 160.072 10.3523 160.589 10.6932C161.107 11.0284 161.521 11.4858 161.834 12.0653C162.152 12.6449 162.311 13.3693 162.311 14.2386V23H159.345V21.2017H159.243C159.055 21.5653 158.791 21.9062 158.45 22.2244C158.115 22.5369 157.692 22.7898 157.18 22.983C156.675 23.1705 156.081 23.2642 155.399 23.2642ZM156.2 20.9972C156.82 20.9972 157.357 20.875 157.811 20.6307C158.266 20.3807 158.615 20.0511 158.859 19.642C159.109 19.233 159.234 18.7869 159.234 18.304V16.7614C159.138 16.8409 158.973 16.9148 158.74 16.983C158.513 17.0511 158.257 17.1108 157.973 17.1619C157.689 17.2131 157.408 17.2585 157.129 17.2983C156.851 17.3381 156.609 17.3722 156.405 17.4006C155.945 17.4631 155.533 17.5653 155.169 17.7074C154.805 17.8494 154.518 18.0483 154.308 18.304C154.098 18.554 153.993 18.8778 153.993 19.2756C153.993 19.8438 154.2 20.2727 154.615 20.5625C155.03 20.8523 155.558 20.9972 156.2 20.9972ZM168.499 15.3295V23H165.413V9.90909H168.362V12.1335H168.516C168.817 11.4006 169.297 10.8182 169.956 10.3864C170.621 9.95455 171.442 9.73864 172.419 9.73864C173.322 9.73864 174.109 9.93182 174.78 10.3182C175.456 10.7045 175.979 11.2642 176.348 11.9972C176.723 12.7301 176.908 13.6193 176.902 14.6648V23H173.817V15.142C173.817 14.267 173.589 13.5824 173.135 13.0881C172.686 12.5937 172.064 12.3466 171.268 12.3466C170.729 12.3466 170.249 12.4659 169.828 12.7045C169.413 12.9375 169.087 13.2756 168.848 13.7188C168.615 14.1619 168.499 14.6989 168.499 15.3295ZM186.575 9.90909V12.2955H179.05V9.90909H186.575ZM180.908 6.77273H183.993V19.0625C183.993 19.4773 184.055 19.7955 184.18 20.017C184.311 20.233 184.482 20.3807 184.692 20.4602C184.902 20.5398 185.135 20.5795 185.391 20.5795C185.584 20.5795 185.76 20.5653 185.919 20.5369C186.084 20.5085 186.209 20.483 186.294 20.4602L186.814 22.8722C186.649 22.929 186.413 22.9915 186.107 23.0597C185.805 23.1278 185.436 23.1676 184.999 23.179C184.226 23.2017 183.53 23.0852 182.911 22.8295C182.291 22.5682 181.8 22.1648 181.436 21.6193C181.078 21.0739 180.902 20.392 180.908 19.5739V6.77273ZM71.2074 39.3438C71.1278 38.5994 70.7926 38.0199 70.2017 37.6051C69.6165 37.1903 68.8551 36.983 67.9176 36.983C67.2585 36.983 66.6932 37.0824 66.2216 37.2812C65.75 37.4801 65.3892 37.75 65.1392 38.0909C64.8892 38.4318 64.7614 38.821 64.7557 39.2585C64.7557 39.6222 64.8381 39.9375 65.0028 40.2045C65.1733 40.4716 65.4034 40.6989 65.6932 40.8864C65.983 41.0682 66.304 41.2216 66.6562 41.3466C67.0085 41.4716 67.3636 41.5767 67.7216 41.6619L69.358 42.071C70.017 42.2244 70.6506 42.4318 71.2585 42.6932C71.8722 42.9545 72.4205 43.2841 72.9034 43.6818C73.392 44.0795 73.7784 44.5597 74.0625 45.1222C74.3466 45.6847 74.4886 46.3437 74.4886 47.0994C74.4886 48.1222 74.2273 49.0227 73.7045 49.8011C73.1818 50.5739 72.4261 51.179 71.4375 51.6165C70.4545 52.0483 69.2642 52.2642 67.8665 52.2642C66.5085 52.2642 65.3295 52.054 64.3295 51.6335C63.3352 51.2131 62.5568 50.5994 61.9943 49.7926C61.4375 48.9858 61.1364 48.0028 61.0909 46.8438H64.2017C64.2472 47.4517 64.4347 47.9574 64.7642 48.3608C65.0938 48.7642 65.5227 49.0653 66.0511 49.2642C66.5852 49.4631 67.1818 49.5625 67.8409 49.5625C68.5284 49.5625 69.1307 49.4602 69.6477 49.2557C70.1705 49.0455 70.5795 48.7557 70.875 48.3864C71.1705 48.0114 71.321 47.5739 71.3267 47.0739C71.321 46.6193 71.1875 46.2443 70.9261 45.9489C70.6648 45.6477 70.2983 45.3977 69.8267 45.1989C69.3608 44.9943 68.8153 44.8125 68.1903 44.6534L66.2045 44.142C64.767 43.7727 63.6307 43.2131 62.7955 42.4631C61.9659 41.7074 61.5511 40.7045 61.5511 39.4545C61.5511 38.4261 61.8295 37.5256 62.3864 36.7528C62.9489 35.9801 63.7131 35.3807 64.679 34.9545C65.6449 34.5227 66.7386 34.3068 67.9602 34.3068C69.1989 34.3068 70.2841 34.5227 71.2159 34.9545C72.1534 35.3807 72.8892 35.9744 73.4233 36.7358C73.9574 37.4915 74.233 38.3608 74.25 39.3438H71.2074ZM82.8814 52.2557C81.603 52.2557 80.495 51.9744 79.5575 51.4119C78.62 50.8494 77.8928 50.0625 77.3757 49.0511C76.8643 48.0398 76.6087 46.858 76.6087 45.5057C76.6087 44.1534 76.8643 42.9687 77.3757 41.9517C77.8928 40.9347 78.62 40.1449 79.5575 39.5824C80.495 39.0199 81.603 38.7386 82.8814 38.7386C84.1598 38.7386 85.2678 39.0199 86.2053 39.5824C87.1428 40.1449 87.8672 40.9347 88.3786 41.9517C88.8956 42.9687 89.1541 44.1534 89.1541 45.5057C89.1541 46.858 88.8956 48.0398 88.3786 49.0511C87.8672 50.0625 87.1428 50.8494 86.2053 51.4119C85.2678 51.9744 84.1598 52.2557 82.8814 52.2557ZM82.8984 49.7841C83.5916 49.7841 84.1712 49.5937 84.6371 49.2131C85.103 48.8267 85.4496 48.3097 85.6768 47.6619C85.9098 47.0142 86.0263 46.2926 86.0263 45.4972C86.0263 44.696 85.9098 43.9716 85.6768 43.3239C85.4496 42.6705 85.103 42.1506 84.6371 41.7642C84.1712 41.3778 83.5916 41.1847 82.8984 41.1847C82.1882 41.1847 81.5973 41.3778 81.1257 41.7642C80.6598 42.1506 80.3104 42.6705 80.0774 43.3239C79.8501 43.9716 79.7365 44.696 79.7365 45.4972C79.7365 46.2926 79.8501 47.0142 80.0774 47.6619C80.3104 48.3097 80.6598 48.8267 81.1257 49.2131C81.5973 49.5937 82.1882 49.7841 82.8984 49.7841ZM97.483 52.2557C96.1761 52.2557 95.054 51.9688 94.1165 51.3949C93.1847 50.821 92.4659 50.0284 91.9602 49.017C91.4602 48 91.2102 46.8295 91.2102 45.5057C91.2102 44.1761 91.4659 43.0028 91.9773 41.9858C92.4886 40.9631 93.2102 40.1676 94.142 39.5994C95.0795 39.0256 96.1875 38.7386 97.4659 38.7386C98.5284 38.7386 99.4688 38.9347 100.287 39.3267C101.111 39.7131 101.767 40.2614 102.256 40.9716C102.744 41.6761 103.023 42.5 103.091 43.4432H100.142C100.023 42.8125 99.7386 42.2869 99.2898 41.8665C98.8466 41.4403 98.2528 41.2273 97.5085 41.2273C96.8778 41.2273 96.3239 41.3977 95.8466 41.7386C95.3693 42.0739 94.9972 42.5568 94.7301 43.1875C94.4688 43.8182 94.3381 44.5739 94.3381 45.4545C94.3381 46.3466 94.4688 47.1136 94.7301 47.7557C94.9915 48.392 95.358 48.8835 95.8295 49.2301C96.3068 49.571 96.8665 49.7415 97.5085 49.7415C97.9631 49.7415 98.3693 49.6562 98.7273 49.4858C99.0909 49.3097 99.3949 49.0568 99.6392 48.7273C99.8835 48.3977 100.051 47.9972 100.142 47.5256H103.091C103.017 48.4517 102.744 49.2727 102.273 49.9886C101.801 50.6989 101.159 51.2557 100.347 51.6591C99.5341 52.0568 98.5795 52.2557 97.483 52.2557ZM105.624 52V38.9091H108.71V52H105.624ZM107.175 37.0511C106.687 37.0511 106.266 36.8892 105.914 36.5653C105.562 36.2358 105.386 35.8409 105.386 35.3807C105.386 34.9148 105.562 34.5199 105.914 34.196C106.266 33.8665 106.687 33.7017 107.175 33.7017C107.67 33.7017 108.09 33.8665 108.437 34.196C108.789 34.5199 108.965 34.9148 108.965 35.3807C108.965 35.8409 108.789 36.2358 108.437 36.5653C108.09 36.8892 107.67 37.0511 107.175 37.0511ZM117.678 52.2557C116.365 52.2557 115.232 51.983 114.277 51.4375C113.328 50.8864 112.598 50.108 112.087 49.1023C111.575 48.0909 111.32 46.9006 111.32 45.5312C111.32 44.1847 111.575 43.0028 112.087 41.9858C112.604 40.9631 113.325 40.1676 114.251 39.5994C115.178 39.0256 116.266 38.7386 117.516 38.7386C118.322 38.7386 119.084 38.8693 119.8 39.1307C120.521 39.3864 121.158 39.7841 121.709 40.3239C122.266 40.8636 122.703 41.5511 123.021 42.3864C123.339 43.2159 123.499 44.2045 123.499 45.3523V46.2983H112.768V44.2188H120.541C120.536 43.6278 120.408 43.1023 120.158 42.642C119.908 42.1761 119.558 41.8097 119.109 41.5426C118.666 41.2756 118.149 41.142 117.558 41.142C116.928 41.142 116.374 41.2955 115.896 41.6023C115.419 41.9034 115.047 42.3011 114.78 42.7955C114.518 43.2841 114.385 43.821 114.379 44.4062V46.2216C114.379 46.983 114.518 47.6364 114.797 48.1818C115.075 48.7216 115.464 49.1364 115.964 49.4261C116.464 49.7102 117.05 49.8523 117.72 49.8523C118.169 49.8523 118.575 49.7898 118.939 49.6648C119.303 49.5341 119.618 49.3438 119.885 49.0938C120.152 48.8438 120.354 48.5341 120.49 48.1648L123.371 48.4886C123.189 49.25 122.842 49.9148 122.331 50.483C121.825 51.0455 121.178 51.483 120.388 51.7955C119.598 52.1023 118.695 52.2557 117.678 52.2557ZM132.646 38.9091V41.2955H125.12V38.9091H132.646ZM126.978 35.7727H130.063V48.0625C130.063 48.4773 130.126 48.7955 130.251 49.017C130.381 49.233 130.552 49.3807 130.762 49.4602C130.972 49.5398 131.205 49.5795 131.461 49.5795C131.654 49.5795 131.83 49.5653 131.989 49.5369C132.154 49.5085 132.279 49.483 132.364 49.4602L132.884 51.8722C132.719 51.929 132.484 51.9915 132.177 52.0597C131.876 52.1278 131.506 52.1676 131.069 52.179C130.296 52.2017 129.6 52.0852 128.981 51.8295C128.362 51.5682 127.87 51.1648 127.506 50.6193C127.148 50.0739 126.972 49.392 126.978 48.5739V35.7727ZM137.143 56.9091C136.723 56.9091 136.334 56.875 135.976 56.8068C135.624 56.7443 135.342 56.6705 135.132 56.5852L135.848 54.1818C136.297 54.3125 136.697 54.375 137.05 54.3693C137.402 54.3636 137.712 54.2528 137.979 54.0369C138.251 53.8267 138.482 53.4744 138.669 52.9801L138.933 52.2727L134.186 38.9091H137.459L140.476 48.7955H140.612L143.638 38.9091H146.919L141.678 53.5852C141.433 54.2784 141.109 54.8722 140.706 55.3665C140.303 55.8665 139.808 56.2472 139.223 56.5085C138.643 56.7756 137.95 56.9091 137.143 56.9091Z" fill="#F4F1EA"/>
</svg>
